<?xml version="1.0" standalone="no"?>
<!DOCTYPE svg PUBLIC "-//W3C//DTD SVG 20010904//EN"
 "http://www.w3.org/TR/2001/REC-SVG-20010904/DTD/svg10.dtd">
<svg version="1.0" xmlns="http://www.w3.org/2000/svg"
 width="700.000000pt" height="700.000000pt" viewBox="0 0 700.000000 700.000000"
 preserveAspectRatio="xMidYMid meet">
<metadata>
Created by potrace 1.14, written by Peter Selinger 2001-2017
</metadata>
<g transform="translate(0.000000,700.000000) scale(0.100000,-0.100000)"
fill="#000000" stroke="none">
<path d="M0 3500 l0 -3500 3500 0 3500 0 0 950 c0 898 -1 950 -17 951 -10 0
-192 1 -405 2 l-388 2 -1 -65 c0 -36 -1 -281 -2 -545 l-2 -480 -2687 -2 -2686
-1 0 2688 0 2688 1426 1 c785 0 1450 0 1479 1 l52 0 0 405 0 405 -1885 0
-1884 0 0 -3500z"/>
<path d="M2082 4920 c-4 -3 -7 -641 -6 -1419 0 -1307 1 -1415 17 -1420 23 -9
2815 -6 2824 2 4 4 7 644 7 1422 1 1251 -1 1415 -14 1416 -63 4 -2823 3 -2828
-1z"/>
</g>
</svg>
